<svg width="181" height="112" viewBox="0 0 181 112" fill="none" xmlns="http://www.w3.org/2000/svg">
<path d="M24.3688 1.73875C25.2241 1.73875 25.921 1.99217 26.4596 2.49901C26.9981 3.00585 27.2673 3.67108 27.2673 4.4947C27.2673 5.31832 26.9981 5.98355 26.4596 6.49039C25.921 6.96555 25.2241 7.20314 24.3688 7.20314H16.9088V32.1017C16.9088 32.9254 16.6078 33.6223 16.0059 34.1925C15.4041 34.731 14.6596 35.0002 13.7727 35.0002C12.8857 35.0002 12.1571 34.731 11.5869 34.1925C11.0167 33.6223 10.7316 32.9254 10.7316 32.1017V7.20314H3.27155C2.41625 7.20314 1.71935 6.94972 1.18083 6.44287C0.642307 5.93603 0.373047 5.2708 0.373047 4.44719C0.373047 3.65524 0.642307 3.00585 1.18083 2.49901C1.75102 1.99217 2.44793 1.73875 3.27155 1.73875H24.3688Z" fill="#FEFEFE"/>
<path d="M48.8806 21.6956C48.8489 22.4559 48.548 23.0736 47.9778 23.5488C47.4076 24.0239 46.7424 24.2615 45.9821 24.2615H30.3017C30.6818 26.1305 31.553 27.6035 32.9151 28.6806C34.2772 29.7259 35.8136 30.2486 37.5242 30.2486C38.823 30.2486 39.8367 30.1377 40.5652 29.916C41.2938 29.6626 41.864 29.4091 42.2758 29.1557C42.7193 28.8706 43.0203 28.6806 43.1786 28.5855C43.7488 28.3004 44.2874 28.1579 44.7942 28.1579C45.4594 28.1579 46.0296 28.3955 46.5048 28.8706C46.98 29.3458 47.2175 29.9001 47.2175 30.5337C47.2175 31.389 46.7741 32.1651 45.8871 32.862C45.0001 33.5906 43.8122 34.2083 42.3233 34.7151C40.8345 35.222 39.3298 35.4754 37.8093 35.4754C35.1484 35.4754 32.8201 34.921 30.8244 33.8123C28.8604 32.7036 27.3398 31.1831 26.2628 29.2507C25.1858 27.2867 24.6472 25.0851 24.6472 22.646C24.6472 19.9217 25.2174 17.53 26.3578 15.471C27.4982 13.4119 29.0029 11.8439 30.8719 10.7669C32.7409 9.65815 34.7366 9.10379 36.859 9.10379C38.9497 9.10379 40.9137 9.67399 42.751 10.8144C44.62 11.9548 46.1088 13.4911 47.2175 15.4235C48.3263 17.3558 48.8806 19.4465 48.8806 21.6956ZM36.859 14.3306C33.1844 14.3306 31.0144 16.057 30.3492 19.5099H42.7985V19.1773C42.6718 17.8468 42.0224 16.7064 40.8503 15.7561C39.6783 14.8058 38.3478 14.3306 36.859 14.3306Z" fill="#FEFEFE"/>
<path d="M66.8455 9.10379C67.7959 9.10379 68.5878 9.37305 69.2213 9.91157C69.8866 10.4501 70.2192 11.0836 70.2192 11.8122C70.2192 12.7942 69.9658 13.5387 69.4589 14.0455C68.9521 14.5207 68.3502 14.7582 67.6533 14.7582C67.1781 14.7582 66.6396 14.6474 66.0378 14.4256C65.9427 14.394 65.721 14.3306 65.3725 14.2356C65.0557 14.1405 64.7073 14.093 64.3272 14.093C63.5035 14.093 62.7116 14.3464 61.9513 14.8533C61.1911 15.3601 60.5575 16.1362 60.0507 17.1816C59.5755 18.1953 59.3379 19.4149 59.3379 20.8403V32.1017C59.3379 32.9254 59.0687 33.6223 58.5302 34.1925C57.9916 34.731 57.3106 35.0002 56.4869 35.0002C55.6633 35.0002 54.9823 34.731 54.4437 34.1925C53.9052 33.6223 53.636 32.9254 53.636 32.1017V12.4775C53.636 11.6538 53.9052 10.9728 54.4437 10.4343C54.9823 9.86405 55.6633 9.57896 56.4869 9.57896C57.3106 9.57896 57.9916 9.86405 58.5302 10.4343C59.0687 10.9728 59.3379 11.6538 59.3379 12.4775V13.0952C60.0665 11.7964 61.1119 10.8144 62.474 10.1492C63.8362 9.45225 65.2933 9.10379 66.8455 9.10379Z" fill="#FEFEFE"/>
<path d="M103.556 9.10379C106.692 9.10379 108.862 10.07 110.066 12.0023C111.27 13.9029 111.872 16.548 111.872 19.9375V32.1017C111.872 32.9254 111.603 33.6223 111.064 34.1925C110.525 34.731 109.844 35.0002 109.021 35.0002C108.197 35.0002 107.516 34.731 106.978 34.1925C106.439 33.6223 106.17 32.9254 106.17 32.1017V19.9375C106.17 18.1953 105.821 16.8331 105.124 15.8511C104.459 14.8374 103.271 14.3306 101.561 14.3306C99.7868 14.3306 98.393 14.8691 97.3793 15.9462C96.3973 16.9915 95.9063 18.322 95.9063 19.9375V32.1017C95.9063 32.9254 95.637 33.6223 95.0985 34.1925C94.56 34.731 93.8789 35.0002 93.0553 35.0002C92.2317 35.0002 91.5506 34.731 91.0121 34.1925C90.4736 33.6223 90.2043 32.9254 90.2043 32.1017V19.9375C90.2043 18.1953 89.8558 16.8331 89.1589 15.8511C88.4937 14.8374 87.3058 14.3306 85.5952 14.3306C83.8213 14.3306 82.4274 14.8691 81.4138 15.9462C80.4318 16.9915 79.9408 18.322 79.9408 19.9375V32.1017C79.9408 32.9254 79.6715 33.6223 79.133 34.1925C78.5945 34.731 77.9134 35.0002 77.0898 35.0002C76.2661 35.0002 75.5851 34.731 75.0466 34.1925C74.508 33.6223 74.2388 32.9254 74.2388 32.1017V12.4775C74.2388 11.6538 74.508 10.9728 75.0466 10.4343C75.5851 9.86405 76.2661 9.57896 77.0898 9.57896C77.9134 9.57896 78.5945 9.86405 79.133 10.4343C79.6715 10.9728 79.9408 11.6538 79.9408 12.4775V13.2377C80.796 12.0973 81.8731 11.1312 83.1719 10.3392C84.5023 9.5156 85.9753 9.10379 87.5909 9.10379C91.5823 9.10379 94.1323 10.8461 95.241 14.3306C95.9696 13.0001 97.0625 11.7964 98.5197 10.7193C100.009 9.64231 101.687 9.10379 103.556 9.10379Z" fill="#FEFEFE"/>
<path d="M123.412 32.1017C123.412 32.9254 123.143 33.6223 122.605 34.1925C122.066 34.731 121.385 35.0002 120.561 35.0002C119.738 35.0002 119.057 34.731 118.518 34.1925C117.98 33.6223 117.71 32.9254 117.71 32.1017V12.4775C117.71 11.6538 117.98 10.9728 118.518 10.4343C119.057 9.86405 119.738 9.57896 120.561 9.57896C121.385 9.57896 122.066 9.86405 122.605 10.4343C123.143 10.9728 123.412 11.6538 123.412 12.4775V32.1017ZM120.514 6.49039C119.437 6.49039 118.677 6.31616 118.233 5.96771C117.79 5.61926 117.568 5.00154 117.568 4.11457V3.21176C117.568 2.32479 117.805 1.70707 118.281 1.35862C118.756 1.01016 119.516 0.835938 120.561 0.835938C121.67 0.835938 122.446 1.01016 122.89 1.35862C123.333 1.70707 123.555 2.32479 123.555 3.21176V4.11457C123.555 5.03322 123.317 5.66677 122.842 6.01523C122.399 6.332 121.623 6.49039 120.514 6.49039Z" fill="#FEFEFE"/>
<path d="M142.862 9.10379C146.093 9.10379 148.327 10.07 149.562 12.0023C150.797 13.9029 151.415 16.548 151.415 19.9375V32.1017C151.415 32.9254 151.146 33.6223 150.607 34.1925C150.069 34.731 149.388 35.0002 148.564 35.0002C147.74 35.0002 147.059 34.731 146.521 34.1925C145.982 33.6223 145.713 32.9254 145.713 32.1017V19.9375C145.713 18.1953 145.349 16.8331 144.62 15.8511C143.892 14.8374 142.64 14.3306 140.866 14.3306C139.029 14.3306 137.588 14.8691 136.542 15.9462C135.497 16.9915 134.974 18.322 134.974 19.9375V32.1017C134.974 32.9254 134.705 33.6223 134.167 34.1925C133.628 34.731 132.947 35.0002 132.123 35.0002C131.3 35.0002 130.619 34.731 130.08 34.1925C129.542 33.6223 129.272 32.9254 129.272 32.1017V12.4775C129.272 11.6538 129.542 10.9728 130.08 10.4343C130.619 9.86405 131.3 9.57896 132.123 9.57896C132.947 9.57896 133.628 9.86405 134.167 10.4343C134.705 10.9728 134.974 11.6538 134.974 12.4775V13.2852C135.83 12.1448 136.938 11.1628 138.301 10.3392C139.694 9.5156 141.215 9.10379 142.862 9.10379Z" fill="#FEFEFE"/>
<path d="M180.386 21.6956C180.354 22.4559 180.053 23.0736 179.483 23.5488C178.913 24.0239 178.248 24.2615 177.487 24.2615H161.807C162.187 26.1305 163.058 27.6035 164.42 28.6806C165.783 29.7259 167.319 30.2486 169.03 30.2486C170.328 30.2486 171.342 30.1377 172.071 29.916C172.799 29.6626 173.369 29.4091 173.781 29.1557C174.225 28.8706 174.526 28.6806 174.684 28.5855C175.254 28.3004 175.793 28.1579 176.3 28.1579C176.965 28.1579 177.535 28.3955 178.01 28.8706C178.485 29.3458 178.723 29.9001 178.723 30.5337C178.723 31.389 178.279 32.1651 177.392 32.862C176.505 33.5906 175.318 34.2083 173.829 34.7151C172.34 35.222 170.835 35.4754 169.315 35.4754C166.654 35.4754 164.325 34.921 162.33 33.8123C160.366 32.7036 158.845 31.1831 157.768 29.2507C156.691 27.2867 156.153 25.0851 156.153 22.646C156.153 19.9217 156.723 17.53 157.863 15.471C159.004 13.4119 160.508 11.8439 162.377 10.7669C164.246 9.65815 166.242 9.10379 168.364 9.10379C170.455 9.10379 172.419 9.67399 174.256 10.8144C176.125 11.9548 177.614 13.4911 178.723 15.4235C179.832 17.3558 180.386 19.4465 180.386 21.6956ZM168.364 14.3306C164.69 14.3306 162.52 16.057 161.855 19.5099H174.304V19.1773C174.177 17.8468 173.528 16.7064 172.356 15.7561C171.184 14.8058 169.853 14.3306 168.364 14.3306Z" fill="#FEFEFE"/>
<path d="M103.419 60.3134C103.419 62.8476 102.848 65.1283 101.708 67.1557C100.568 69.1514 98.9995 70.7036 97.0038 71.8123C95.0398 72.921 92.8699 73.4754 90.494 73.4754C88.0865 73.4754 85.9008 72.921 83.9368 71.8123C81.9728 70.7036 80.4206 69.1514 79.2802 67.1557C78.1398 65.1283 77.5696 62.8476 77.5696 60.3134C77.5696 57.7791 78.1398 55.5142 79.2802 53.5185C80.4206 51.4911 81.9728 49.9231 83.9368 48.8144C85.9008 47.674 88.0865 47.1038 90.494 47.1038C92.8699 47.1038 95.0398 47.674 97.0038 48.8144C98.9995 49.9231 100.568 51.4911 101.708 53.5185C102.848 55.5142 103.419 57.7791 103.419 60.3134ZM97.7165 60.3134C97.7165 58.7612 97.3839 57.3832 96.7187 56.1794C96.0851 54.944 95.214 53.9937 94.1053 53.3284C93.0282 52.6632 91.8245 52.3306 90.494 52.3306C89.1636 52.3306 87.944 52.6632 86.8353 53.3284C85.7582 53.9937 84.8871 54.944 84.2219 56.1794C83.5883 57.3832 83.2715 58.7612 83.2715 60.3134C83.2715 61.8656 83.5883 63.2435 84.2219 64.4473C84.8871 65.651 85.7582 66.5855 86.8353 67.2507C87.944 67.916 89.1636 68.2486 90.494 68.2486C91.8245 68.2486 93.0282 67.916 94.1053 67.2507C95.214 66.5855 96.0851 65.651 96.7187 64.4473C97.3839 63.2435 97.7165 61.8656 97.7165 60.3134Z" fill="#FEFEFE"/>
<path d="M31.8007 77.7387C34.7784 77.7387 37.3284 78.4832 39.4508 79.972C41.6049 81.4292 43.2363 83.4249 44.345 85.9591C45.4854 88.4616 46.0556 91.2651 46.0556 94.3695C46.0556 97.4739 45.4854 100.293 44.345 102.827C43.2363 105.33 41.6049 107.326 39.4508 108.814C37.3284 110.272 34.7784 111 31.8007 111H20.4443C19.6207 111 18.9238 110.731 18.3536 110.192C17.815 109.622 17.5458 108.925 17.5458 108.102V80.6372C17.5458 79.8136 17.815 79.1326 18.3536 78.594C18.9238 78.0239 19.6207 77.7387 20.4443 77.7387H31.8007ZM31.3255 105.536C34.1765 105.536 36.3148 104.49 37.7402 102.4C39.1657 100.277 39.8785 97.6006 39.8785 94.3695C39.8785 91.1384 39.1499 88.4775 37.6927 86.3867C36.2672 84.2643 34.1448 83.2031 31.3255 83.2031H23.4853V105.536H31.3255Z" fill="#FEFEFE"/>
<path d="M56.4068 108.102C56.4068 108.925 56.1375 109.622 55.599 110.192C55.0605 110.731 54.3794 111 53.5558 111C52.7322 111 52.0511 110.731 51.5126 110.192C50.9741 109.622 50.7048 108.925 50.7048 108.102V88.4775C50.7048 87.6538 50.9741 86.9728 51.5126 86.4342C52.0511 85.8641 52.7322 85.579 53.5558 85.579C54.3794 85.579 55.0605 85.8641 55.599 86.4342C56.1375 86.9728 56.4068 87.6538 56.4068 88.4775V108.102ZM53.5083 82.4904C52.4312 82.4904 51.671 82.3162 51.2275 81.9677C50.784 81.6193 50.5623 81.0015 50.5623 80.1146V79.2118C50.5623 78.3248 50.7998 77.7071 51.275 77.3586C51.7502 77.0102 52.5104 76.8359 53.5558 76.8359C54.6645 76.8359 55.4406 77.0102 55.8841 77.3586C56.3276 77.7071 56.5493 78.3248 56.5493 79.2118V80.1146C56.5493 81.0332 56.3117 81.6668 55.8366 82.0152C55.3931 82.332 54.617 82.4904 53.5083 82.4904Z" fill="#FEFEFE"/>
<path d="M74.5261 105.631C74.9696 105.631 75.3656 105.853 75.714 106.296C76.0942 106.708 76.2842 107.262 76.2842 107.959C76.2842 108.814 75.8091 109.543 74.8587 110.145C73.9401 110.715 72.8947 111 71.7226 111C69.7586 111 68.0956 110.588 66.7334 109.765C65.403 108.91 64.7377 107.12 64.7377 104.395V91.2809H62.552C61.7917 91.2809 61.1582 91.0275 60.6513 90.5207C60.1445 90.0138 59.8911 89.3803 59.8911 88.62C59.8911 87.8914 60.1445 87.2895 60.6513 86.8144C61.1582 86.3075 61.7917 86.0541 62.552 86.0541H64.7377V83.0131C64.7377 82.1895 65.007 81.5084 65.5455 80.9699C66.1157 80.3997 66.8126 80.1146 67.6362 80.1146C68.4282 80.1146 69.0934 80.3997 69.6319 80.9699C70.1704 81.5084 70.4397 82.1895 70.4397 83.0131V86.0541H73.8134C74.5736 86.0541 75.2072 86.3075 75.714 86.8144C76.2209 87.3212 76.4743 87.9548 76.4743 88.715C76.4743 89.4436 76.2209 90.0613 75.714 90.5682C75.2072 91.0433 74.5736 91.2809 73.8134 91.2809H70.4397V104.158C70.4397 104.823 70.6139 105.314 70.9624 105.631C71.3108 105.916 71.786 106.059 72.3879 106.059C72.6413 106.059 72.9897 105.995 73.4332 105.868C73.8134 105.71 74.1777 105.631 74.5261 105.631Z" fill="#FEFEFE"/>
<path d="M102.284 85.1038C103.108 85.1038 103.789 85.3731 104.327 85.9116C104.866 86.4501 105.135 87.147 105.135 88.0023V108.102C105.135 108.925 104.866 109.622 104.327 110.192C103.789 110.731 103.108 111 102.284 111C101.461 111 100.78 110.731 100.241 110.192C99.7342 109.654 99.4649 108.973 99.4333 108.149C98.6413 109.068 97.5643 109.86 96.2021 110.525C94.8717 111.159 93.462 111.475 91.9732 111.475C89.7874 111.475 87.8076 110.921 86.0336 109.812C84.2597 108.672 82.85 107.104 81.8047 105.108C80.791 103.113 80.2841 100.848 80.2841 98.3134C80.2841 95.7791 80.791 93.5142 81.8047 91.5185C82.8183 89.4911 84.1963 87.9231 85.9386 86.8144C87.7125 85.674 89.6607 85.1038 91.7831 85.1038C93.3036 85.1038 94.7291 85.3889 96.0596 85.9591C97.39 86.4976 98.5146 87.1945 99.4333 88.0498V88.0023C99.4333 87.1787 99.7025 86.4976 100.241 85.9591C100.78 85.3889 101.461 85.1038 102.284 85.1038ZM92.6859 106.249C94.745 106.249 96.4239 105.504 97.7227 104.015C99.0214 102.495 99.6708 100.594 99.6708 98.3134C99.6708 96.0326 99.0214 94.1319 97.7227 92.6114C96.4239 91.0909 94.745 90.3306 92.6859 90.3306C90.6586 90.3306 88.9955 91.0909 87.6967 92.6114C86.3979 94.1319 85.7485 96.0326 85.7485 98.3134C85.7485 100.594 86.3821 102.495 87.6492 104.015C88.948 105.504 90.6269 106.249 92.6859 106.249Z" fill="#FEFEFE"/>
<path d="M131.889 75.8381C132.713 75.8381 133.394 76.1074 133.932 76.6459C134.471 77.1844 134.74 77.8813 134.74 78.7366V108.102C134.74 108.925 134.471 109.622 133.932 110.192C133.394 110.731 132.713 111 131.889 111C131.066 111 130.384 110.731 129.846 110.192C129.339 109.654 129.07 108.973 129.038 108.149C128.246 109.068 127.169 109.86 125.807 110.525C124.477 111.159 123.067 111.475 121.578 111.475C119.392 111.475 117.413 110.921 115.639 109.812C113.865 108.672 112.455 107.104 111.41 105.108C110.396 103.113 109.889 100.848 109.889 98.3134C109.889 95.7791 110.396 93.5142 111.41 91.5185C112.423 89.4911 113.801 87.9231 115.544 86.8144C117.317 85.674 119.266 85.1038 121.388 85.1038C122.909 85.1038 124.334 85.3889 125.665 85.9591C126.995 86.4976 128.12 87.1945 129.038 88.0498V78.7366C129.038 77.913 129.307 77.2319 129.846 76.6934C130.384 76.1232 131.066 75.8381 131.889 75.8381ZM122.291 106.249C124.35 106.249 126.029 105.504 127.328 104.015C128.626 102.495 129.276 100.594 129.276 98.3134C129.276 96.0326 128.626 94.1319 127.328 92.6114C126.029 91.0909 124.35 90.3306 122.291 90.3306C120.263 90.3306 118.6 91.0909 117.302 92.6114C116.003 94.1319 115.353 96.0326 115.353 98.3134C115.353 100.594 115.987 102.495 117.254 104.015C118.553 105.504 120.232 106.249 122.291 106.249Z" fill="#FEFEFE"/>
<path d="M165.343 98.3134C165.343 100.848 164.773 103.128 163.632 105.156C162.492 107.151 160.924 108.704 158.928 109.812C156.964 110.921 154.794 111.475 152.418 111.475C150.011 111.475 147.825 110.921 145.861 109.812C143.897 108.704 142.345 107.151 141.205 105.156C140.064 103.128 139.494 100.848 139.494 98.3134C139.494 95.7791 140.064 93.5142 141.205 91.5185C142.345 89.4911 143.897 87.9231 145.861 86.8144C147.825 85.674 150.011 85.1038 152.418 85.1038C154.794 85.1038 156.964 85.674 158.928 86.8144C160.924 87.9231 162.492 89.4911 163.632 91.5185C164.773 93.5142 165.343 95.7791 165.343 98.3134ZM159.641 98.3134C159.641 96.7612 159.308 95.3832 158.643 94.1794C158.01 92.944 157.138 91.9937 156.03 91.3284C154.953 90.6632 153.749 90.3306 152.418 90.3306C151.088 90.3306 149.868 90.6632 148.76 91.3284C147.683 91.9937 146.812 92.944 146.146 94.1794C145.513 95.3832 145.196 96.7612 145.196 98.3134C145.196 99.8656 145.513 101.244 146.146 102.447C146.812 103.651 147.683 104.586 148.76 105.251C149.868 105.916 151.088 106.249 152.418 106.249C153.749 106.249 154.953 105.916 156.03 105.251C157.138 104.586 158.01 103.651 158.643 102.447C159.308 101.244 159.641 99.8656 159.641 98.3134Z" fill="#FEFEFE"/>
</svg>
