<svg width="74" height="32" viewBox="0 0 74 32" fill="none" xmlns="http://www.w3.org/2000/svg">
<path d="M22.005 0.900024C22.779 0.900024 23.4097 1.12936 23.897 1.58803C24.3844 2.04669 24.628 2.64869 24.628 3.39403C24.628 4.13936 24.3844 4.74136 23.897 5.20003C23.4097 5.63003 22.779 5.84503 22.005 5.84503H15.254V28.377C15.254 29.1224 14.9817 29.753 14.437 30.269C13.8924 30.7564 13.2187 31 12.416 31C11.6134 31 10.954 30.7564 10.438 30.269C9.92204 29.753 9.66404 29.1224 9.66404 28.377V5.84503H2.91304C2.13904 5.84503 1.50837 5.61569 1.02104 5.15703C0.533706 4.69836 0.290039 4.09636 0.290039 3.35103C0.290039 2.63436 0.533706 2.04669 1.02104 1.58803C1.53704 1.12936 2.16771 0.900024 2.91304 0.900024H22.005Z" fill="#F53030"/>
<path d="M44.359 19.519C44.359 21.8124 43.843 23.8764 42.811 25.711C41.779 27.517 40.36 28.9217 38.554 29.925C36.7767 30.9284 34.813 31.43 32.663 31.43C30.4843 31.43 28.5063 30.9284 26.729 29.925C24.9517 28.9217 23.547 27.517 22.515 25.711C21.483 23.8764 20.967 21.8124 20.967 19.519C20.967 17.2257 21.483 15.176 22.515 13.37C23.547 11.5354 24.9517 10.1164 26.729 9.11303C28.5063 8.08103 30.4843 7.56503 32.663 7.56503C34.813 7.56503 36.7767 8.08103 38.554 9.11303C40.36 10.1164 41.779 11.5354 42.811 13.37C43.843 15.176 44.359 17.2257 44.359 19.519ZM39.199 19.519C39.199 18.1144 38.898 16.8674 38.296 15.778C37.7227 14.66 36.9343 13.8 35.931 13.198C34.9563 12.596 33.867 12.295 32.663 12.295C31.459 12.295 30.3553 12.596 29.352 13.198C28.3773 13.8 27.589 14.66 26.987 15.778C26.4137 16.8674 26.127 18.1144 26.127 19.519C26.127 20.9237 26.4137 22.1707 26.987 23.26C27.589 24.3494 28.3773 25.195 29.352 25.797C30.3553 26.399 31.459 26.7 32.663 26.7C33.867 26.7 34.9563 26.399 35.931 25.797C36.9343 25.195 37.7227 24.3494 38.296 23.26C38.898 22.1707 39.199 20.9237 39.199 19.519Z" fill="#F53030"/>
<path d="M60.7101 0.900024C63.4047 0.900024 65.7124 1.57369 67.6331 2.92102C69.5824 4.23969 71.0587 6.04569 72.0621 8.33903C73.0941 10.6037 73.6101 13.1407 73.6101 15.95C73.6101 18.7594 73.0941 21.3107 72.0621 23.604C71.0587 25.8687 69.5824 27.6747 67.6331 29.022C65.7124 30.3407 63.4047 31 60.7101 31H50.4331C49.6877 31 49.0571 30.7564 48.5411 30.269C48.0537 29.753 47.8101 29.1224 47.8101 28.377V3.52302C47.8101 2.77769 48.0537 2.16136 48.5411 1.67402C49.0571 1.15802 49.6877 0.900024 50.4331 0.900024H60.7101ZM60.2801 26.055C62.8601 26.055 64.7951 25.109 66.0851 23.217C67.3751 21.2964 68.0201 18.874 68.0201 15.95C68.0201 13.026 67.3607 10.618 66.0421 8.72603C64.7521 6.80536 62.8314 5.84503 60.2801 5.84503H53.1851V26.055H60.2801Z" fill="#F53030"/>
</svg>
